<svg xmlns="http://www.w3.org/2000/svg" viewBox="0 0 32 32"><title>70-Egg</title><g id="_70-Egg" data-name="70-Egg"><path d="M27,13H26c0-.33,0-.67,0-1C26,5.38,21.51,0,16,0S6,5.38,6,12c0,.33,0,.67,0,1H5a1,1,0,0,0-1,1v2a12,12,0,0,0,8.37,11.43A4.48,4.48,0,0,0,11.09,30H11a2,2,0,0,0-2,2H20a1,1,0,0,0,.26-.05H21A.23.23,0,0,1,21,32h2a2,2,0,0,0-2-2h-.09a4.48,4.48,0,0,0-1.28-2.57A12,12,0,0,0,28,16V14A1,1,0,0,0,27,13ZM16,2c4.41,0,8,4.49,8,10,0,.33,0,.67,0,1H8c0-.33,0-.67,0-1C8,6.49,11.59,2,16,2ZM13.13,30A2.91,2.91,0,0,1,16,28a2.91,2.91,0,0,1,2.88,2ZM26,16A10,10,0,0,1,6,16V15H26Z"/><path d="M16,6V4c-3.31,0-6,3.14-6,7h2C12,8.24,13.79,6,16,6Z"/></g></svg>