<svg xmlns="http://www.w3.org/2000/svg" width="24" height="24" viewBox="0 0 24 24">
  <path d="M17.535,9.26a.5.5,0,0,0-.5.5v.73H15.077A3.549,3.549,0,0,0,12.5,11.97V10.82a2.245,2.245,0,0,0,1.951-2.329,7.519,7.519,0,0,0-1.935-4.452V3a.5.5,0,0,0-1,0V4.022a7.541,7.541,0,0,0-1.95,4.469A2.242,2.242,0,0,0,11.5,10.816v1.2A3.574,3.574,0,0,0,8.889,10.49H6.931V9.76a.5.5,0,0,0-1,0v1.23h0a5.5,5.5,0,0,0,1.16,3.454,2.442,2.442,0,0,0,1.8.733H11.5v1.756a3.574,3.574,0,0,0-2.613-1.527H6.931v-.729a.5.5,0,0,0-1,0v1.229h0a5.5,5.5,0,0,0,1.16,3.453,2.443,2.443,0,0,0,1.8.734H11.5v1.344a.5.5,0,0,0,1,0V20.094h2.575a2.443,2.443,0,0,0,1.8-.734,5.5,5.5,0,0,0,1.16-3.453h0V14.677a.5.5,0,0,0-1,0v.729H15.077a3.552,3.552,0,0,0-2.575,1.48V15.177h2.575a2.442,2.442,0,0,0,1.8-.733,5.5,5.5,0,0,0,1.16-3.454h0V9.76A.5.5,0,0,0,17.535,9.26Zm-6.967-.769A6.228,6.228,0,0,1,12.012,5a6.222,6.222,0,0,1,1.441,3.493,1.352,1.352,0,0,1-1.442,1.384A1.352,1.352,0,0,1,10.568,8.491ZM8.889,14.177A1.453,1.453,0,0,1,7.8,13.741,3.9,3.9,0,0,1,6.96,11.49H8.889a3.152,3.152,0,0,1,2.532,2.687Zm0,4.917A1.457,1.457,0,0,1,7.8,18.658a3.908,3.908,0,0,1-.843-2.252H8.889a3.152,3.152,0,0,1,2.532,2.688Zm6.188-2.688h1.931a3.962,3.962,0,0,1-.843,2.25,1.455,1.455,0,0,1-1.088.438H12.545A3.151,3.151,0,0,1,15.077,16.406Zm1.088-2.666a1.458,1.458,0,0,1-1.088.437H12.545a3.151,3.151,0,0,1,2.532-2.687h1.931A3.962,3.962,0,0,1,16.165,13.74Z"/>
</svg>
