<svg version="1.1" viewBox="0.0 0.0 960.0 720.0" fill="none" stroke="none" stroke-linecap="square" stroke-miterlimit="10" xmlns:xlink="http://www.w3.org/1999/xlink" xmlns="http://www.w3.org/2000/svg"><clipPath id="p.0"><path d="m0 0l960.0 0l0 720.0l-960.0 0l0 -720.0z" clip-rule="nonzero"/></clipPath><g clip-path="url(#p.0)"><path fill="#000000" fill-opacity="0.0" d="m0 0l960.0 0l0 720.0l-960.0 0z" fill-rule="evenodd"/><path fill="#000000" fill-opacity="0.0" d="m282.70767 301.82037l264.25198 0l0 116.346466l-264.25198 0z" fill-rule="evenodd"/><path fill="#d36d6d" d="m293.70767 387.62036l0 -48.5625l-1.203125 0l0.796875 -7.4375l12.484375 0l3.84375 30.15625l3.921875 -30.15625l12.234375 0l0 56.0l-7.59375 0l0 -43.515625l-5.921875 35.515625l-5.203125 0l-5.765625 -34.5625l0 42.5625l-7.59375 0zm43.767456 0q-3.6875 0 -5.890625 -2.109375q-2.203125 -2.125 -2.203125 -5.328125l0 -25.125q0 -3.28125 2.203125 -5.359375q2.203125 -2.078125 5.890625 -2.078125l0.3125 0q2.15625 0 3.84375 1.046875l0 -1.046875l7.59375 0l0 32.5625l1.125 0l0.796875 7.4375l-9.515625 0l0 -3.125l-2.0 3.125l-2.15625 0zm-0.09375 -32.5625q-0.390625 0 -0.390625 0.40625l0 24.3125q0 0.40625 0.390625 0.40625l4.25 0l0 -25.125l-4.25 0zm36.72873 32.5625l-7.609375 0l0 -32.15625q0 -0.40625 -0.390625 -0.40625l-4.25 0l0 32.5625l-7.59375 0l0 -32.5625l-1.921875 0l0.796875 -7.4375l8.71875 0l0 3.125l2.0 -3.125l2.171875 0q2.640625 0 4.546875 1.125q1.921875 1.109375 2.8125 3.03125l2.71875 -4.15625l2.15625 0q3.6875 0 5.875 2.078125q2.203125 2.078125 2.203125 5.359375l0 25.125l1.921875 0l-0.796875 7.4375l-8.71875 0l0 -32.15625q0 -0.40625 -0.40625 -0.40625l-4.234375 0l0 32.5625zm37.119965 0l-7.609375 0l0 -32.15625q0 -0.40625 -0.390625 -0.40625l-4.25 0l0 32.5625l-7.59375 0l0 -32.5625l-1.921875 0l0.796875 -7.4375l8.71875 0l0 3.125l2.0 -3.125l2.171875 0q2.640625 0 4.546875 1.125q1.921875 1.109375 2.8125 3.03125l2.71875 -4.15625l2.15625 0q3.6875 0 5.875 2.078125q2.203125 2.078125 2.203125 5.359375l0 25.125l1.921875 0l-0.796875 7.4375l-8.71875 0l0 -32.15625q0 -0.40625 -0.40625 -0.40625l-4.234375 0l0 32.5625zm24.644958 0q-3.6875 0 -5.890625 -2.109375q-2.203125 -2.125 -2.203125 -5.328125l0 -25.125q0 -3.28125 2.203125 -5.359375q2.203125 -2.078125 5.890625 -2.078125l0.3125 0q2.15625 0 3.84375 1.046875l0 -1.046875l7.59375 0l0 32.5625l1.125 0l0.796875 7.4375l-9.515625 0l0 -3.125l-2.0 3.125l-2.15625 0zm-0.09375 -32.5625q-0.390625 0 -0.390625 0.40625l0 24.3125q0 0.40625 0.390625 0.40625l4.25 0l0 -25.125l-4.25 0zm30.966217 32.5625l0 -48.5625l-1.203125 0l0.796875 -7.4375l12.484375 0l3.84375 30.15625l3.921875 -30.15625l12.234375 0l0 56.0l-7.59375 0l0 -43.515625l-5.921875 35.515625l-5.203125 0l-5.765625 -34.5625l0 42.5625l-7.59375 0zm42.476837 -50.640625l0.796875 7.4375l-7.59375 0l0 -7.4375l6.796875 0zm0.796875 10.640625l0 40.0l-7.59375 0l0 -32.5625l-1.203125 0l0.796875 -7.4375l8.0 0zm10.893768 40.0q-3.6875 0 -5.890625 -2.109375q-2.203125 -2.125 -2.203125 -5.328125l0 -25.125q0 -3.28125 2.203125 -5.359375q2.203125 -2.078125 5.890625 -2.078125l0.3125 0q2.15625 0 3.84375 1.046875l0 -1.046875l7.59375 0l0 32.5625l1.125 0l0.796875 7.4375l-9.515625 0l0 -3.125l-2.0 3.125l-2.15625 0zm-0.09375 -32.5625q-0.390625 0 -0.390625 0.40625l0 24.3125q0 0.40625 0.390625 0.40625l4.25 0l0 -25.125l-4.25 0z" fill-rule="nonzero"/><path fill="#d36d6d" d="m677.29224 360.00015l0 0c0 27.252502 -17.553162 51.070618 -42.714417 57.95984c-25.161316 6.8891907 -51.58905 -4.8868713 -64.31012 -28.65628c-12.72113 -23.76944 -8.529419 -53.54135 10.200256 -72.44797c18.729675 -18.906647 47.276672 -22.18277 69.467224 -7.9722595l-29.808289 51.11667z" fill-rule="evenodd"/></g></svg>