<svg version="1.1" viewBox="0.0 0.0 351.8241469816273 100.0" fill="none" stroke="none" stroke-linecap="square" stroke-miterlimit="10" xmlns:xlink="http://www.w3.org/1999/xlink" xmlns="http://www.w3.org/2000/svg"><clipPath id="p.0"><path d="m0 0l351.82416 0l0 100.0l-351.82416 0l0 -100.0z" clip-rule="nonzero"/></clipPath><g clip-path="url(#p.0)"><path fill="#000000" fill-opacity="0.0" d="m0 0l351.82416 0l0 100.0l-351.82416 0z" fill-rule="evenodd"/><path fill="#000000" fill-opacity="0.0" d="m-4.073168 -8.17307l264.25198 0l0 116.34646l-264.25198 0z" fill-rule="evenodd"/><path fill="#d36d6d" d="m6.926832 77.62692l0 -48.5625l-1.203125 0l0.796875 -7.4375l12.484375 0l3.84375 30.156252l3.921875 -30.156252l12.234377 0l0 56.0l-7.593752 0l0 -43.51562l-5.921875 35.51562l-5.203125 0l-5.765625 -34.562496l0 42.562496l-7.59375 0zm43.767456 0q-3.6875 0 -5.890625 -2.109375q-2.203125 -2.125 -2.203125 -5.328125l0 -25.124996q0 -3.28125 2.203125 -5.359375q2.203125 -2.078125 5.890625 -2.078125l0.3125 0q2.15625 0 3.84375 1.046875l0 -1.046875l7.59375 0l0 32.562496l1.125 0l0.796875 7.4375l-9.515625 0l0 -3.125l-2.0 3.125l-2.15625 0zm-0.09375 -32.562496q-0.390625 0 -0.390625 0.40625l0 24.312496q0 0.40625 0.390625 0.40625l4.25 0l0 -25.124996l-4.25 0zm36.72873 32.562496l-7.609375 0l0 -32.156246q0 -0.40625 -0.390625 -0.40625l-4.25 0l0 32.562496l-7.59375 0l0 -32.562496l-1.921875 0l0.796875 -7.4375l8.71875 0l0 3.125l2.0 -3.125l2.171875 0q2.640625 0 4.546875 1.125q1.921875 1.109375 2.8125 3.03125l2.71875 -4.15625l2.15625 0q3.6875 0 5.875 2.078125q2.203125 2.078125 2.203125 5.359375l0 25.124996l1.921875 0l-0.796875 7.4375l-8.71875 0l0 -32.156246q0 -0.40625 -0.40625 -0.40625l-4.234375 0l0 32.562496zm37.119965 0l-7.609375 0l0 -32.156246q0 -0.40625 -0.390625 -0.40625l-4.25 0l0 32.562496l-7.59375 0l0 -32.562496l-1.921875 0l0.796875 -7.4375l8.71875 0l0 3.125l2.0 -3.125l2.171875 0q2.640625 0 4.546875 1.125q1.921875 1.109375 2.8125 3.03125l2.71875 -4.15625l2.15625 0q3.6875 0 5.875 2.078125q2.203125 2.078125 2.203125 5.359375l0 25.124996l1.921875 0l-0.796875 7.4375l-8.71875 0l0 -32.156246q0 -0.40625 -0.40625 -0.40625l-4.234375 0l0 32.562496zm24.644958 0q-3.6875 0 -5.890625 -2.109375q-2.203125 -2.125 -2.203125 -5.328125l0 -25.124996q0 -3.28125 2.203125 -5.359375q2.203125 -2.078125 5.890625 -2.078125l0.3125 0q2.15625 0 3.84375 1.046875l0 -1.046875l7.59375 0l0 32.562496l1.125 0l0.796875 7.4375l-9.515625 0l0 -3.125l-2.0 3.125l-2.15625 0zm-0.09375 -32.562496q-0.390625 0 -0.390625 0.40625l0 24.312496q0 0.40625 0.390625 0.40625l4.25 0l0 -25.124996l-4.25 0zm30.966217 32.562496l0 -48.5625l-1.203125 0l0.796875 -7.4375l12.484375 0l3.84375 30.156252l3.921875 -30.156252l12.234375 0l0 56.0l-7.59375 0l0 -43.51562l-5.921875 35.51562l-5.203125 0l-5.765625 -34.562496l0 42.562496l-7.59375 0zm42.476837 -50.640625l0.796875 7.437502l-7.59375 0l0 -7.437502l6.796875 0zm0.796875 10.640627l0 39.999996l-7.59375 0l0 -32.562496l-1.203125 0l0.796875 -7.4375l8.0 0zm10.893753 39.999996q-3.6875 0 -5.890625 -2.109375q-2.203125 -2.125 -2.203125 -5.328125l0 -25.124996q0 -3.28125 2.203125 -5.359375q2.203125 -2.078125 5.890625 -2.078125l0.3125 0q2.15625 0 3.84375 1.046875l0 -1.046875l7.59375 0l0 32.562496l1.125 0l0.796875 7.4375l-9.515625 0l0 -3.125l-2.0 3.125l-2.15625 0zm-0.09375 -32.562496q-0.390625 0 -0.390625 0.40625l0 24.312496q0 0.40625 0.390625 0.40625l4.25 0l0 -25.124996l-4.25 0z" fill-rule="nonzero"/><path fill="#d36d6d" d="m344.96747 50.001366l0 0c0 17.39267 -11.691986 32.612854 -28.496857 37.096207c-16.804901 4.4833527 -34.524597 -2.8901367 -43.188293 -17.971436c-8.663666 -15.081303 -6.107025 -34.10286 6.2313538 -46.3613c12.338379 -12.258441 31.37616 -14.691416 46.400818 -5.9298973l-19.340729 33.166428z" fill-rule="evenodd"/></g></svg>