<svg id="Layer_1" data-name="Layer 1" xmlns="http://www.w3.org/2000/svg" viewBox="0 0 48 48"><defs><style>.cls-1{fill:none;stroke:#000;stroke-linecap:round;stroke-linejoin:round;stroke-width:2px;}</style></defs><title>peanuts</title><path class="cls-1" d="M33,16.5C33,9.6,29,4,24,4s-9,5.6-9,12.5a16.4,16.4,0,0,0,1,5.65,5.35,5.35,0,0,1,0,3.69,16.4,16.4,0,0,0-1,5.65C15,38.4,19,44,24,44s9-5.6,9-12.5a16.4,16.4,0,0,0-1-5.65,5.35,5.35,0,0,1,0-3.69A16.4,16.4,0,0,0,33,16.5Z"/><circle cx="27" cy="19" r="1"/><circle cx="22" cy="30" r="1"/><circle cx="21" cy="38" r="1"/><circle cx="27" cy="27" r="1"/><circle cx="21" cy="22" r="1"/><circle cx="27" cy="35" r="1"/><circle cx="28" cy="13" r="1"/><circle cx="23" cy="10" r="1"/><circle cx="22" cy="15" r="1"/><rect class="cls-1" x="-287" y="-355" width="690" height="690"/></svg>