<svg xmlns="http://www.w3.org/2000/svg" viewBox="0 0 32 32"><defs><style>.cls-1{fill:#231f20;}</style></defs><g id="shrimp"><path class="cls-1" d="M19,11h0a1,1,0,1,0-1,1A1,1,0,0,0,19,11Z"/><path class="cls-1" d="M27.43,6.34,23.22,4.76A11.89,11.89,0,0,0,19,4a1,1,0,0,0,0,2,10.05,10.05,0,0,1,3.52.63l4.21,1.58A2,2,0,0,1,26.05,12H24.74a1.06,1.06,0,0,0,.26-.65,1,1,0,0,0-.36-.77A15.08,15.08,0,0,0,15,7H8a1,1,0,0,0-.42.08l-.08,0a.78.78,0,0,0-.24.16.54.54,0,0,0-.09.12c0,.06-.09.11-.13.18a7.33,7.33,0,0,0,0,5.82A7.19,7.19,0,0,0,10,16.59a4.92,4.92,0,0,0-.67,1.21,8.08,8.08,0,0,1-1.85-.69A8.74,8.74,0,0,1,4,13.72V13.6a5.62,5.62,0,0,1,1-3,1,1,0,0,0-.21-1.4,1,1,0,0,0-1.4.22A7.6,7.6,0,0,0,2,13.53c0,.69-.24,6.91,4.35,10.86A10.74,10.74,0,0,0,13.43,27c.35,0,.65,0,.93,0l.72,1a4.68,4.68,0,0,0,3.85,2H20a1,1,0,0,0,.88-.53,1,1,0,0,0-.05-1l-1.07-1.6A3.81,3.81,0,0,0,19,26a4.1,4.1,0,0,0,.76-.85l1.07-1.6a1,1,0,0,0,.05-1A1,1,0,0,0,20,22H18.93a4.69,4.69,0,0,0-3.85,2l-.44.63c-2.58-1.13-3.89-3.5-3.65-5.35a4.23,4.23,0,0,1,.19-.76,3,3,0,0,1,2.4-1.92l1.56-.22A1,1,0,0,0,16,15.26s0,0,0,0a1,1,0,0,0-.4-1A3.9,3.9,0,0,1,14,11.8,3.91,3.91,0,0,1,14.52,9H15a13,13,0,0,1,7.4,2.38,13.25,13.25,0,0,1-4.68,2.49,1,1,0,0,0,.28,2,.9.9,0,0,0,.28,0A15.24,15.24,0,0,0,22.17,14h3.88a4,4,0,0,0,1.38-7.66ZM17,27.13a2,2,0,0,1,1.07.71A2.75,2.75,0,0,1,17,27.13Zm1.07-3a2,2,0,0,1-1.07.71A2.83,2.83,0,0,1,18,24.15ZM6.53,18.88A10.06,10.06,0,0,0,9,19.8a5.85,5.85,0,0,0,.15,1.25,6.57,6.57,0,0,1-1-.05,7.16,7.16,0,0,1-2.63-.87h0a12.09,12.09,0,0,1-1-2.72A10.7,10.7,0,0,0,6.53,18.88ZM7.78,23l.09,0A10.71,10.71,0,0,0,9,23.06,8.48,8.48,0,0,0,9.87,23a7.78,7.78,0,0,0,1.33,1.72A8.51,8.51,0,0,1,7.78,23ZM12,12.19a5.7,5.7,0,0,0,1.16,2.46,4.92,4.92,0,0,0-1.6.56,1,1,0,0,0-.16-.12,5.21,5.21,0,0,1-2.51-2.51A5.1,5.1,0,0,1,8.7,9h3.6A5.64,5.64,0,0,0,12,12.19Z"/></g></svg>